<?xml version="1.0" encoding="UTF-8" standalone="no"?>
<svg width="24px" height="24px" viewBox="0 0 24 24" version="1.1" xmlns="http://www.w3.org/2000/svg" xmlns:xlink="http://www.w3.org/1999/xlink">
    <!-- Generator: sketchtool 39.1 (31720) - http://www.bohemiancoding.com/sketch -->
    <title>6EBC4B09-731B-468A-9EEE-01B8FD4203E2</title>
    <desc>Created with sketchtool.</desc>
    <defs></defs>
    <g id="Dashboard" stroke="none" stroke-width="1" fill="none" fill-rule="evenodd">
        <g id="0.0.0-Assets" transform="translate(-166.000000, -100.000000)" fill="#FFFFFF">
            <g id="ic_assign" transform="translate(166.000000, 100.000000)">
                <path d="M21.1575846,6.491 C21.1285846,6.52 21.0815846,6.568 21.0245846,6.626 C20.8035846,6.056 20.4155846,5.324 19.7435846,4.646 C19.0545846,3.951 18.3595846,3.548 17.7995846,3.306 C17.8485846,3.258 17.8865846,3.22 17.9015846,3.205 C17.9805846,3.126 18.7075846,2.432 19.6135846,2.432 C20.1355846,2.432 20.6475846,2.67 21.1365846,3.138 C21.7165846,3.695 22.0155846,4.244 22.0255846,4.77 C22.0355846,5.308 21.7435846,5.887 21.1575846,6.491 M4.09358458,17.245 C4.47758458,17.346 5.27658458,17.641 6.09258458,18.464 C6.72158458,19.098 7.01558458,19.795 7.14858458,20.22 C6.18058458,20.531 4.05058458,21.266 2.69158458,21.704 C3.09358458,20.381 3.76958458,18.327 4.09358458,17.245 M16.6825846,4.423 C17.0355846,4.509 17.8755846,4.788 18.7385846,5.659 C19.6105846,6.538 19.8435846,7.541 19.8855846,7.763 C17.1315846,10.503 10.7915846,16.775 8.29658458,19.244 C8.06658458,18.705 7.70058458,18.059 7.09758458,17.452 C6.36458458,16.713 5.61958458,16.297 5.04458458,16.063 C7.51558458,13.591 13.9705846,7.134 16.6825846,4.423 M22.1165846,2.101 C21.3535846,1.37 20.5125846,1 19.6135846,1 C18.2095846,1 17.1855846,1.907 16.9045846,2.184 C16.5105846,2.575 3.05558458,16.036 3.05558458,16.036 C2.96758458,16.124 2.90358458,16.234 2.87058458,16.355 C2.56658458,17.477 1.04658458,22.452 1.03158458,22.502 C0.953584576,22.757 1.02258458,23.035 1.21058458,23.222 C1.34658458,23.357 1.52658458,23.429 1.71058458,23.429 C1.78258458,23.429 1.85658458,23.418 1.92758458,23.395 C1.97958458,23.378 7.11558458,21.718 7.96058458,21.465 C8.07158458,21.432 8.17358458,21.372 8.25658458,21.29 C8.79058458,20.762 21.3395846,8.352 22.1735846,7.492 C23.0345846,6.604 23.4625846,5.679 23.4465846,4.744 C23.4295846,3.82 22.9825846,2.931 22.1165846,2.101"></path>
            </g>
        </g>
    </g>
</svg>