<?xml version="1.0" encoding="UTF-8" standalone="no"?>
<svg width="24px" height="24px" viewBox="0 0 24 24" version="1.1" xmlns="http://www.w3.org/2000/svg" xmlns:xlink="http://www.w3.org/1999/xlink">
    <!-- Generator: sketchtool 39.1 (31720) - http://www.bohemiancoding.com/sketch -->
    <title>1FFCBBB5-0201-4EB5-8440-E887A07E57B0</title>
    <desc>Created with sketchtool.</desc>
    <defs></defs>
    <g id="Dashboard" stroke="none" stroke-width="1" fill="none" fill-rule="evenodd">
        <g id="0.0.0-Assets" transform="translate(-98.000000, -100.000000)" fill="#FFFFFF">
            <g id="ic_date" transform="translate(98.000000, 100.000000)">
                <path d="M7.3,14.995 L5.9,14.995 C5.513,14.995 5.2,15.308 5.2,15.695 L5.2,17.095 C5.2,17.481 5.513,17.795 5.9,17.795 L7.3,17.795 C7.687,17.795 8,17.481 8,17.095 L8,15.695 C8,15.308 7.687,14.995 7.3,14.995 L7.3,14.995 Z M7.3,9.395 L5.9,9.395 C5.513,9.395 5.2,9.708 5.2,10.095 L5.2,11.495 C5.2,11.881 5.513,12.195 5.9,12.195 L7.3,12.195 C7.687,12.195 8,11.881 8,11.495 L8,10.095 C8,9.708 7.687,9.395 7.3,9.395 L7.3,9.395 Z M12.9,9.395 L11.5,9.395 C11.114,9.395 10.8,9.708 10.8,10.095 L10.8,11.495 C10.8,11.881 11.114,12.195 11.5,12.195 L12.9,12.195 C13.287,12.195 13.6,11.881 13.6,11.495 L13.6,10.095 C13.6,9.708 13.287,9.395 12.9,9.395 L12.9,9.395 Z M12.9,14.995 L11.5,14.995 C11.114,14.995 10.8,15.308 10.8,15.695 L10.8,17.095 C10.8,17.481 11.114,17.795 11.5,17.795 L12.9,17.795 C13.287,17.795 13.6,17.481 13.6,17.095 L13.6,15.695 C13.6,15.308 13.287,14.995 12.9,14.995 L12.9,14.995 Z M17.1,17.795 L18.5,17.795 C18.887,17.795 19.2,17.481 19.2,17.095 L19.2,15.695 C19.2,15.308 18.887,14.995 18.5,14.995 L17.1,14.995 C16.714,14.995 16.4,15.308 16.4,15.695 L16.4,17.095 C16.4,17.481 16.714,17.795 17.1,17.795 L17.1,17.795 Z M17.1,12.195 L18.5,12.195 C18.887,12.195 19.2,11.881 19.2,11.495 L19.2,10.095 C19.2,9.708 18.887,9.395 18.5,9.395 L17.1,9.395 C16.714,9.395 16.4,9.708 16.4,10.095 L16.4,11.495 C16.4,11.881 16.714,12.195 17.1,12.195 L17.1,12.195 Z M22,21.995 L2.4,21.995 L2.4,4.495 L7.995,4.495 L7.995,5.2 C7.995,5.587 8.308,5.9 8.695,5.9 C9.082,5.9 9.395,5.587 9.395,5.2 L9.395,4.495 L14.995,4.495 L14.995,5.2 C14.995,5.587 15.308,5.9 15.695,5.9 C16.082,5.9 16.395,5.587 16.395,5.2 L16.395,4.495 L22,4.495 L22,21.995 Z M22,3.095 L16.395,3.095 L16.395,1.7 C16.395,1.313 16.082,1 15.695,1 C15.308,1 14.995,1.313 14.995,1.7 L14.995,3.095 L9.395,3.095 L9.395,1.7 C9.395,1.313 9.082,1 8.695,1 C8.308,1 7.995,1.313 7.995,1.7 L7.995,3.095 L2.4,3.095 C1.627,3.095 1,3.722 1,4.495 L1,21.995 C1,22.768 1.627,23.395 2.4,23.395 L22,23.395 C22.773,23.395 23.4,22.768 23.4,21.995 L23.4,4.495 C23.4,3.722 22.773,3.095 22,3.095 L22,3.095 Z"></path>
            </g>
        </g>
    </g>
</svg>