<?xml version="1.0" encoding="UTF-8" standalone="no"?>
<svg width="24px" height="24px" viewBox="0 0 24 24" version="1.1" xmlns="http://www.w3.org/2000/svg" xmlns:xlink="http://www.w3.org/1999/xlink">
    <!-- Generator: sketchtool 39.1 (31720) - http://www.bohemiancoding.com/sketch -->
    <title>9D3FFE4C-E214-477C-861D-043E262A5BB3</title>
    <desc>Created with sketchtool.</desc>
    <defs></defs>
    <g id="Dashboard" stroke="none" stroke-width="1" fill="none" fill-rule="evenodd">
        <g id="0.0.0-Assets" transform="translate(-64.000000, -100.000000)" fill="#FFFFFF">
            <g id="ic_gallery" transform="translate(64.000000, 100.000000)">
                <path d="M9.259,2.377 L2.376,2.377 L2.376,9.26 L9.259,9.26 L9.259,2.377 Z M9.259,10.636 L2.376,10.636 C1.616,10.636 1,10.02 1,9.26 L1,2.377 C1,1.617 1.616,1 2.376,1 L9.259,1 C10.019,1 10.636,1.617 10.636,2.377 L10.636,9.26 C10.636,10.02 10.019,10.636 9.259,10.636 L9.259,10.636 Z M9.259,14.766 L2.376,14.766 L2.376,21.649 L9.259,21.649 L9.259,14.766 Z M9.259,23.025 L2.376,23.025 C1.616,23.025 1,22.409 1,21.649 L1,14.766 C1,14.005 1.616,13.389 2.376,13.389 L9.259,13.389 C10.019,13.389 10.636,14.005 10.636,14.766 L10.636,21.649 C10.636,22.409 10.019,23.025 9.259,23.025 L9.259,23.025 Z M21.648,2.377 L14.765,2.377 L14.765,9.26 L21.648,9.26 L21.648,2.377 Z M21.648,10.636 L14.765,10.636 C14.005,10.636 13.389,10.02 13.389,9.26 L13.389,2.377 C13.389,1.617 14.005,1 14.765,1 L21.648,1 C22.408,1 23.025,1.617 23.025,2.377 L23.025,9.26 C23.025,10.02 22.408,10.636 21.648,10.636 L21.648,10.636 Z M21.648,14.766 L14.765,14.766 L14.765,21.649 L21.648,21.649 L21.648,14.766 Z M21.648,23.025 L14.765,23.025 C14.005,23.025 13.389,22.409 13.389,21.649 L13.389,14.766 C13.389,14.005 14.005,13.389 14.765,13.389 L21.648,13.389 C22.408,13.389 23.025,14.005 23.025,14.766 L23.025,21.649 C23.025,22.409 22.408,23.025 21.648,23.025 L21.648,23.025 Z"></path>
            </g>
        </g>
    </g>
</svg>