<?xml version="1.0" encoding="UTF-8" standalone="no"?>
<svg width="24px" height="24px" viewBox="0 0 24 24" version="1.1" xmlns="http://www.w3.org/2000/svg" xmlns:xlink="http://www.w3.org/1999/xlink">
    <!-- Generator: sketchtool 39.1 (31720) - http://www.bohemiancoding.com/sketch -->
    <title>BD55B59F-6BDE-4C32-9498-076FCD4A7BB2</title>
    <desc>Created with sketchtool.</desc>
    <defs></defs>
    <g id="Dashboard" stroke="none" stroke-width="1" fill="none" fill-rule="evenodd">
        <g id="0.0.0-Assets" transform="translate(-30.000000, -100.000000)" fill="#FFFFFF">
            <g id="ic_home" transform="translate(30.000000, 100.000000)">
                <path d="M19.5287752,10.770461 L19.5287752,21.6240172 L16.1137641,21.6240172 L16.1137641,14.7539314 C16.1137641,14.3735704 15.8073138,14.06594 15.4284121,14.06594 L8.59838973,14.06594 C8.22144613,14.06594 7.91499587,14.3725876 7.91303772,14.7519657 L7.89149809,21.6240172 L4.47159155,21.6240172 L4.47159155,10.770461 C4.47159155,10.7154217 4.45298914,10.6672623 4.44124025,10.6161544 L12.0271079,2.68164761 L19.5620638,10.6073088 C19.5483567,10.6603824 19.5287752,10.7124732 19.5287752,10.770461 M22.8096532,12.0294853 L12.5215405,1.21131165 C12.3923026,1.07567906 12.2141111,1 12.0271079,1 C11.8401047,1 11.6619132,1.07567906 11.5326754,1.21131165 L1.19071357,12.0294853 C0.928321657,12.3036991 0.9381124,12.7390994 1.21127413,13.0015189 C1.48443586,13.2649214 1.9171867,13.2570586 2.17957861,12.981862 L3.10088753,12.0176912 L3.10088753,22.3120086 C3.10088753,22.6923695 3.40831686,23 3.78623954,23 L8.57489195,23 C8.95183555,23 9.25828581,22.6933524 9.26024396,22.3139743 L9.28178359,15.4419228 L14.74306,15.4419228 L14.74306,22.3120086 C14.74306,22.6923695 15.0495103,23 15.4284121,23 L20.2141272,23 C20.593029,23 20.8994793,22.6923695 20.8994793,22.3120086 L20.8994793,12.0137598 L21.8198091,12.9828449 C21.9549213,13.1224089 22.135071,13.1941565 22.3152207,13.1941565 C22.4855796,13.1931737 22.6569176,13.1302716 22.7890927,13.0015189 C23.0622544,12.7390994 23.0710661,12.3036991 22.8096532,12.0294853"></path>
            </g>
        </g>
    </g>
</svg>