<?xml version="1.0" encoding="UTF-8" standalone="no"?>
<svg width="24px" height="24px" viewBox="0 0 24 24" version="1.1" xmlns="http://www.w3.org/2000/svg" xmlns:xlink="http://www.w3.org/1999/xlink">
    <!-- Generator: sketchtool 39.1 (31720) - http://www.bohemiancoding.com/sketch -->
    <title>810E3774-D7F3-457D-BFDB-BD15C7049DE1</title>
    <desc>Created with sketchtool.</desc>
    <defs></defs>
    <g id="Dashboard" stroke="none" stroke-width="1" fill="none" fill-rule="evenodd">
        <g id="0.0.0-Assets" transform="translate(-132.000000, -100.000000)" fill="#FFFFFF">
            <g id="ic_project" transform="translate(132.000000, 100.000000)">
                <path d="M22.0004444,20.525 L2.40044444,20.525 L2.40044444,12.84 L8.15644444,12.84 C8.76744444,14.6 10.2514444,15.677 12.2004444,15.677 C14.1494444,15.677 15.6554444,14.6 16.2664444,12.84 L22.0004444,12.84 L22.0004444,20.525 Z M4.58644444,4.4 L19.6004444,4.4 L21.6374444,11.44 L15.1114444,11.44 C15.0794444,13.12 13.8884444,14.277 12.2004444,14.277 C10.5124444,14.277 9.34344444,13.12 9.31144444,11.44 L2.62244444,11.44 L4.58644444,4.4 Z M23.3884444,12.722 C23.4054444,12.624 23.4064444,12.521 23.3784444,12.418 L20.8074444,3.513 C20.7234444,3.21 20.4474444,3 20.1334444,3 L4.04744444,3 C3.73044444,3 3.45244444,3.213 3.37044444,3.52 L1.02044444,11.971 C0.978444444,12.132 1.00444444,12.291 1.06844444,12.432 C1.02844444,12.562 1.00044444,12.697 1.00044444,12.84 L1.00044444,20.525 C1.00044444,21.298 1.62744444,21.925 2.40044444,21.925 L22.0004444,21.925 C22.7734444,21.925 23.4004444,21.298 23.4004444,20.525 L23.4004444,12.84 C23.4004444,12.8 23.3914444,12.762 23.3884444,12.722 L23.3884444,12.722 Z"></path>
            </g>
        </g>
    </g>
</svg>