<?xml version="1.0" encoding="UTF-8" standalone="no"?>
<svg width="16px" height="16px" viewBox="0 0 16 16" version="1.1" xmlns="http://www.w3.org/2000/svg" xmlns:xlink="http://www.w3.org/1999/xlink">
    <!-- Generator: sketchtool 39.1 (31720) - http://www.bohemiancoding.com/sketch -->
    <title>BF16B0E3-2428-4986-A172-DBE148CC1527</title>
    <desc>Created with sketchtool.</desc>
    <defs></defs>
    <g id="Dashboard" stroke="none" stroke-width="1" fill="none" fill-rule="evenodd">
        <g id="0.0.0-Assets" transform="translate(-80.000000, -30.000000)" fill="#FFFFFF">
            <g id="ic_search" transform="translate(80.000000, 30.000000)">
                <path d="M6.22926822,11.5121372 C3.33490103,11.5121372 0.988709451,9.1572909 0.988709451,6.2522469 C0.988709451,3.3472029 3.33490103,0.991356269 6.22926822,0.991356269 C9.1236354,0.991356269 11.469827,3.3472029 11.469827,6.2522469 C11.469827,9.1572909 9.1236354,11.5121372 6.22926822,11.5121372 M15.8542351,15.1464433 L11.0113528,10.2556856 C11.9143476,9.17129593 12.4585364,7.77579443 12.4585364,6.2522469 C12.4585364,2.79900589 9.66981764,0 6.22926822,0 C2.7887188,0 0,2.79900589 0,6.2522469 C0,9.70448755 2.7887188,12.5044938 6.22926822,12.5044938 C7.79206703,12.5044938 9.21732359,11.9222846 10.3106848,10.9679416 L15.1495803,15.8536974 C15.3439335,16.0487675 15.659882,16.0487675 15.8542351,15.8536974 C16.0485883,15.6586273 16.0485883,15.3415134 15.8542351,15.1464433"></path>
            </g>
        </g>
    </g>
</svg>